<svg xmlns="http://www.w3.org/2000/svg" width="115.537mm" height="44.55mm" viewBox="0 0 11554 4455" shape-rendering="geometricPrecision" text-rendering="geometricPrecision" image-rendering="optimizeQuality" fill-rule="evenodd" clip-rule="evenodd"><defs><style type="text/css"><![CDATA[
    .fil1 {fill:#FEFEFE}
    .fil2 {fill:#ADAFB1}
    .fil0 {fill:#3B598D}
    .fil3 {fill:#ADAFB1;fill-rule:nonzero}
    .fil4 {fill:#3B598D;fill-rule:nonzero}
   ]]></style></defs><g id="_618349664"><circle class="fil0" cx="4130" cy="2224" r="2224"/><ellipse class="fil1" cx="4130" cy="2224" rx="1733" ry="1747"/><path class="fil0" d="M4518 3545c-159 70-334 109-518 109-715 0-1295-585-1295-1306 0-176 34-344 97-497-9 69-14 139-14 210 0 830 667 1503 1491 1503 81 0 161-6 239-19z"/><ellipse class="fil0" cx="4770" cy="1430" rx="476" ry="34"/><ellipse class="fil0" transform="matrix(0 .28 -.28 0 4769.54 1429.75)" rx="1699" ry="122"/><ellipse class="fil0" transform="matrix(-.109 .109 -.109 -.109 4769.54 1429.75)" rx="1699" ry="122"/><ellipse class="fil0" transform="matrix(-.109 -.109 .109 -.109 4769.54 1429.75)" rx="1699" ry="122"/><path class="fil2" d="M5783 736c1363-592 2356-874 2467-660 112 214-688 867-1953 1644-550 339-1188 700-1877 1060-689 359-1351 675-1943 932-1362 593-2355 875-2467 661-111-214 688-867 1953-1645 16 66 34 130 55 193-954 583-1547 1042-1478 1175 70 134 786-90 1810-539 581-254 1260-580 1978-954 717-374 1374-745 1915-1076 954-583 1547-1042 1478-1175-70-133-786 91-1810 539-40-54-83-105-128-155z"/><path class="fil3" d="M6917 2051c0 18 2 35 8 50s13 29 24 40c10 11 22 20 36 26s30 10 48 10c17 0 33-4 48-10 14-6 26-15 37-26 10-11 18-25 23-40 6-15 9-32 9-50 0-17-3-33-9-48-5-14-13-27-23-38-11-11-23-20-37-26-15-6-31-9-48-9-18 0-34 3-48 9s-26 15-36 26c-11 11-18 24-24 38-6 15-8 31-8 48zm-64 4c0-28 5-52 14-74 9-23 21-42 37-57 16-16 34-28 56-36 22-9 46-13 72-13 27 0 51 4 73 12s41 20 57 35c16 16 28 35 37 57s14 46 14 74c0 26-5 50-14 72s-21 40-37 56-35 28-57 37c-22 8-46 13-73 13-26 0-50-4-72-13-22-8-40-20-56-35-16-16-28-34-37-56s-14-46-14-72z"/><path id="1" class="fil3" d="M7331 2171h55c8 0 16-1 25-2s17-3 24-6c7-4 13-9 18-15 5-7 7-16 7-27 0-18-6-30-17-37-12-7-30-11-55-11h-57v98zm0-149h55c20 0 35-4 45-12s15-18 15-31c0-15-5-26-16-33-10-7-27-11-50-11h-49v87zm-61-138h132c13 0 26 1 38 4 13 3 24 8 33 15 10 7 18 16 24 27 6 10 9 24 9 39 0 19-5 35-16 47-11 13-25 22-43 27v1c11 1 21 4 30 9 9 4 17 10 23 18 6 7 11 15 15 24 4 10 6 20 6 31 0 18-4 34-11 46-8 12-17 22-29 30-12 7-26 13-42 16-15 3-31 5-47 5h-122v-339z"/><path id="2" class="fil3" d="M7747 1956c-7-9-15-16-26-20s-22-6-34-6c-7 0-14 0-20 2-7 2-13 4-18 8-5 3-9 8-13 13-3 6-4 12-4 20 0 12 4 20 12 26 8 7 17 12 29 16 12 5 25 9 39 13s27 10 39 17c12 8 22 18 30 30 7 12 11 28 11 48 0 18-3 34-10 48-6 13-15 24-27 33-11 9-24 16-39 20-15 5-31 7-48 7-21 0-41-3-60-10-20-7-37-19-51-36l46-44c7 11 17 20 29 26s25 10 38 10c7 0 14-1 21-3s13-5 19-9 11-9 14-15c4-5 5-12 5-20 0-12-4-22-12-29-8-6-18-12-29-17-12-4-25-9-39-13s-27-10-39-17-22-16-30-28-12-28-12-49c0-17 4-32 11-45s17-23 28-32c12-8 25-15 40-19s31-6 46-6c18 0 36 3 52 8 17 6 32 15 46 27l-44 46z"/><path id="3" class="fil3" d="M7855 1884h225v54h-165v84h156v54h-156v92h173v55h-233z"/><path id="4" class="fil3" d="M8255 2027c8 0 17 0 26-1 8-1 16-3 23-6 8-3 13-7 18-14 4-6 7-14 7-26 0-10-3-18-7-24s-9-10-16-13-14-5-22-6-16-2-24-2h-52v92h47zm-107-143h117c17 0 32 1 48 4 15 3 28 8 40 16 12 7 21 17 28 29 7 13 11 29 11 48 0 24-7 45-21 62-13 16-33 26-58 30l90 150h-73l-78-144h-44v144h-60v-339z"/><path id="5" class="fil3" d="M8410 1884h69l93 256 95-256h65l-137 339h-52z"/><path id="6" class="fil3" d="M8928 2093l-52-138-53 138h105zm-76-209h52l146 339h-69l-32-78h-147l-30 78h-68l148-339z"/><path id="7" class="fil3" d="M9113 1938h-104v-54h268v54h-104v285h-60z"/><path id="8" class="fil3" d="M9363 2051c0 18 3 35 9 50 5 15 13 29 23 40 11 11 23 20 37 26s30 10 48 10c17 0 33-4 48-10 14-6 26-15 36-26 11-11 19-25 24-40 6-15 8-32 8-50 0-17-2-33-8-48-5-14-13-27-24-38-10-11-22-20-36-26-15-6-31-9-48-9-18 0-34 3-48 9s-26 15-37 26c-10 11-18 24-23 38-6 15-9 31-9 48zm-63 4c0-28 5-52 14-74 9-23 21-42 37-57 16-16 34-28 56-36 22-9 46-13 72-13 27 0 51 4 73 12s41 20 57 35c16 16 28 35 37 57s14 46 14 74c0 26-5 50-14 72s-21 40-37 56-35 28-57 37c-22 8-46 13-73 13-26 0-50-4-72-13-22-8-40-20-56-35-16-16-28-34-37-56s-14-46-14-72z"/><path id="9" class="fil3" d="M9824 2027c9 0 18 0 26-1 9-1 17-3 24-6s13-7 17-14c5-6 7-14 7-26 0-10-2-18-6-24s-10-10-16-13c-7-3-15-5-23-6s-16-2-23-2h-53v92h47zm-107-143h118c16 0 32 1 47 4s29 8 40 16c12 7 22 17 29 29 7 13 10 29 10 48 0 24-7 45-20 62-14 16-33 26-58 30l90 150h-73l-79-144h-44v144h-60v-339z"/><path id="10" class="fil3" d="M10017 1884h61v339h-61z"/><path id="11" class="fil3" d="M10197 2051c0 18 3 35 8 50 6 15 14 29 24 40s22 20 36 26c15 6 30 10 48 10s34-4 48-10 27-15 37-26 18-25 23-40c6-15 9-32 9-50 0-17-3-33-9-48-5-14-13-27-23-38s-23-20-37-26-30-9-48-9-33 3-48 9c-14 6-26 15-36 26s-18 24-24 38c-5 15-8 31-8 48zm-63 4c0-28 4-52 13-74 9-23 21-42 37-57 16-16 35-28 57-36 21-9 45-13 72-13 26 0 50 4 72 12s41 20 57 35c16 16 29 35 38 57s13 46 13 74c0 26-4 50-13 72s-22 40-38 56-35 28-57 37c-22 8-46 13-72 13-27 0-51-4-72-13-22-8-41-20-57-35-16-16-28-34-37-56s-13-46-13-72z"/><path id="12" class="fil3" d="M7058 2613l-52-137-54 137h106zm-77-209h52l146 339h-69l-31-78h-147l-31 78h-67l147-339z"/><path id="13" class="fil3" d="M7383 2476c-6-9-15-16-25-20-11-4-22-6-34-6-7 0-14 0-20 2-7 2-13 4-18 8-5 3-10 8-13 13-3 6-5 13-5 20 0 12 4 20 12 27 8 6 18 11 30 15 12 5 25 9 39 13s27 10 39 18c11 7 21 17 29 29s12 28 12 48c0 18-3 34-10 48-7 13-16 24-27 33s-24 16-39 21c-15 4-31 6-48 6-21 0-41-3-61-10-19-7-36-19-50-36l46-44c7 11 17 20 29 26 12 7 24 10 38 10 7 0 14-1 21-3s13-5 19-9 10-9 14-14c3-6 5-13 5-21 0-12-4-22-12-28-8-7-18-13-30-17-11-5-24-10-38-14s-27-9-39-17c-12-7-22-16-30-28s-12-28-12-48c0-18 4-33 11-46s17-23 28-32c12-8 25-15 40-19s30-6 46-6c18 0 35 3 52 8 17 6 32 15 45 27l-44 46z"/><path id="14" class="fil3" d="M7561 2458h-104v-54h268v54h-103v285h-61z"/><path id="15" class="fil3" d="M7874 2547c8 0 17 0 26-1 8-1 16-3 23-6 8-3 13-7 18-14 4-6 7-14 7-26 0-9-3-17-7-24-4-6-9-10-16-13s-14-5-22-6-16-2-24-2h-52v92h47zm-107-143h117c17 0 32 1 48 4 15 3 28 8 40 16 12 7 21 17 28 30 7 12 11 28 11 47 0 24-7 45-21 62-13 16-33 26-58 30l90 150h-73l-78-144h-44v144h-60v-339z"/><path id="16" class="fil3" d="M8113 2571c0 18 3 35 9 50 5 15 13 29 23 40s23 20 37 26 30 10 47 10c18 0 34-4 48-10 15-6 27-15 37-26s18-25 24-40c5-15 8-32 8-50 0-17-3-33-8-48-6-14-14-27-24-38s-22-20-37-26c-14-6-30-9-48-9-17 0-33 3-47 9s-27 15-37 26-18 24-23 38c-6 15-9 31-9 48zm-63 4c0-28 4-52 13-74 9-23 22-41 37-57 16-16 35-28 57-36 22-9 46-13 72-13s51 4 73 12 41 20 57 36c16 15 28 34 37 56s13 47 13 74c0 26-4 50-13 72s-21 40-37 56-35 28-57 37c-22 8-47 13-73 13s-50-4-72-12c-22-9-41-21-57-36-15-16-28-34-37-56s-13-46-13-72z"/><path id="17" class="fil3" d="M8467 2404h80l164 251 1 1h-1l1-1v-251h60v339h-76l-168-260h-1v260h-60z"/><path id="18" class="fil3" d="M8893 2571c0 18 3 35 8 50 6 15 14 29 24 40s22 20 37 26c14 6 30 10 47 10 18 0 34-4 48-10s27-15 37-26 18-25 24-40c5-15 8-32 8-50 0-17-3-33-8-48-6-14-14-27-24-38s-23-20-37-26-30-9-48-9c-17 0-33 3-47 9-15 6-27 15-37 26s-18 24-24 38c-5 15-8 31-8 48zm-63 4c0-28 4-52 13-74 9-23 21-41 37-57s35-28 57-36c22-9 46-13 72-13s50 4 72 12 41 20 57 36c16 15 29 34 38 56s13 47 13 74c0 26-4 50-13 72s-22 40-38 56-35 28-57 37c-22 8-46 13-72 13s-50-4-72-12c-22-9-41-21-57-36-16-16-28-34-37-56s-13-46-13-72zm205-263h65l-68 69h-45l48-69z"/><path id="19" class="fil3" d="M9248 2404h92l90 237 92-237h91v339h-58v-282h-1l-103 282h-42l-103-282h-1v282h-57z"/><path id="20" class="fil3" d="M9688 2404h61v339h-61z"/><path id="21" class="fil3" d="M10056 2483c-13-13-25-22-37-27-11-4-23-6-35-6-17 0-33 3-47 9-15 6-27 15-37 26s-18 24-24 38c-5 15-8 31-8 48 0 18 3 35 8 50 6 15 14 29 24 40s22 20 37 26c14 6 30 10 47 10 14 0 27-4 40-10 13-7 25-17 36-32l50 36c-15 21-34 36-56 46-22 9-45 14-70 14-26 0-50-4-72-12-22-9-41-21-57-36-16-16-28-34-37-56s-13-46-13-72c0-28 4-52 13-74 9-23 21-41 37-57s35-28 57-36c22-9 46-13 72-13 23 0 44 4 64 12 19 8 38 22 54 42l-46 34z"/><path id="22" class="fil3" d="M10196 2571c0 18 3 35 8 50 6 15 14 29 24 40s22 20 36 26c15 6 31 10 48 10 18 0 34-4 48-10s27-15 37-26 18-25 23-40c6-15 9-32 9-50 0-17-3-33-9-48-5-14-13-27-23-38s-23-20-37-26-30-9-48-9c-17 0-33 3-48 9-14 6-26 15-36 26s-18 24-24 38c-5 15-8 31-8 48zm-63 4c0-28 4-52 13-74 9-23 21-41 37-57s35-28 57-36c21-9 45-13 72-13 26 0 50 4 72 12s41 20 57 36c16 15 29 34 38 56s13 47 13 74c0 26-4 50-13 72s-22 40-38 56-35 28-57 37c-22 8-46 13-72 13-27 0-51-4-72-12-22-9-41-21-57-36-16-16-28-34-37-56s-13-46-13-72z"/><path class="fil4" d="M6986 2926c54 0 92 15 116 44s36 70 36 121v82c0 54-13 94-38 122-26 27-65 41-120 41h-66v267h-76v-677h148zm-6 342c29 0 50-7 63-20 14-14 21-38 21-71v-89c0-31-6-55-18-70-12-16-32-23-60-23h-72v273h66z"/><path id="1" class="fil4" d="M7351 2926c53 0 92 13 115 40 24 26 35 64 35 115v55c0 37-6 68-20 91-13 23-35 39-64 48 31 9 53 26 66 50s19 54 19 91v106c0 14 1 29 2 43 2 13 5 26 12 38h-76c-5-10-8-20-10-32-2-11-3-28-3-50v-107c0-38-9-64-26-79-17-14-41-21-73-21h-53v289h-75v-677h151zm-20 319c31 0 54-6 71-19 17-12 25-37 25-74v-64c0-31-6-55-18-70-12-16-32-23-60-23h-74v250h56z"/><path id="2" class="fil4" d="M7575 3089c0-52 13-93 38-124 26-30 64-46 117-46 52 0 91 16 116 46 26 31 39 72 39 124v350c0 52-13 93-39 124-25 31-64 47-116 47-53 0-91-16-117-47-25-31-38-72-38-124v-350zm74 354c0 31 7 55 20 72s33 26 61 26c27 0 48-9 60-26 13-17 20-41 20-72v-357c0-31-7-55-20-72-12-17-33-26-60-26-28 0-48 9-61 26s-20 41-20 72v357z"/><path id="3" class="fil4" d="M8188 3241v69h-156v293h-75v-677h268v69h-193v246z"/><path id="4" class="fil4" d="M8290 3509v94h-72v-94z"/><path id="5" class="fil4" d="M8594 3466l-26 137h-70l130-677h109l129 677h-75l-26-137h-171zm9-64h151l-76-391-75 391z"/><path id="6" class="fil4" d="M8925 3603v-677h76v608h193v69z"/><path id="7" class="fil4" d="M9492 3226v67h-166v241h203v69h-278v-677h278v69h-203v231z"/><path id="8" class="fil4" d="M9767 3311l-113 292h-71l136-349-128-328h79l104 271 105-271h71l-127 328 136 349h-80z"/><path id="9" class="fil4" d="M10095 2926v677h-75v-677z"/><path id="10" class="fil4" d="M10314 2919c52 0 90 16 114 46 25 31 37 72 37 123v19h-71v-22c0-31-7-55-19-72s-32-25-59-25-46 8-59 25c-12 17-18 40-18 71 0 25 6 47 17 65 11 19 25 36 42 52s35 31 55 47c19 15 37 31 54 49s31 39 42 62 17 50 17 81c0 52-12 93-37 124-25 30-63 46-116 46-52 0-90-16-115-46-24-31-36-72-36-124v-38h70v42c0 31 7 55 19 72 13 17 33 25 60 25s47-8 60-25 20-41 20-72c0-25-6-47-17-65-12-18-26-35-42-51-17-16-35-32-54-47-20-15-38-31-55-49-16-18-30-39-42-62-11-23-17-50-17-82 0-52 13-93 37-123 25-31 62-46 113-46z"/><path id="11" class="fil4" d="M6937 4448v-608h-125v-68h325v68h-125v608z"/><path id="12" class="fil4" d="M7340 3772c53 0 92 13 115 39 24 27 36 65 36 115v55c0 38-7 68-21 91-13 23-34 39-63 48 31 10 53 26 65 50 13 24 20 55 20 92v105c0 15 0 29 2 43 1 14 5 27 11 38h-76c-5-9-8-20-10-31-2-12-3-28-3-51v-106c0-38-8-65-25-79-17-15-42-22-73-22h-53v289h-76v-676h151zm-19 319c30 0 53-7 70-19 17-13 25-38 25-74v-65c0-31-6-54-18-70-11-15-32-23-60-23h-73v251h56z"/><path id="13" class="fil4" d="M7564 3935c0-52 13-94 38-124 26-31 65-46 117-46s91 15 117 46c26 30 39 72 39 124v350c0 51-13 93-39 124-26 30-65 46-117 46s-91-16-117-46c-25-31-38-73-38-124v-350zm75 354c0 31 6 55 19 72 14 17 34 25 61 25 28 0 48-8 61-25s19-41 19-72v-358c0-31-6-55-19-72s-33-26-61-26c-27 0-47 9-61 26-13 17-19 41-19 72v358z"/><path id="14" class="fil4" d="M8092 3765c52 0 91 15 116 46 24 31 37 72 37 124v61h-72v-65c0-31-6-55-19-72-12-17-32-26-60-26-27 0-47 9-60 26s-19 41-19 72v358c0 31 6 55 19 72s33 25 60 25c28 0 48-8 60-25 13-17 19-41 19-72v-88h72v84c0 51-13 93-37 124-25 30-64 46-116 46s-90-16-115-46c-24-31-37-73-37-124v-350c0-26 3-49 9-70 7-21 16-39 28-54 13-15 29-26 48-34s41-12 67-12z"/><path id="15" class="fil4" d="M8389 4144v304h-76v-676h76v304h166v-304h75v676h-75v-304z"/><path id="16" class="fil4" d="M8948 4071v68h-165v241h203v68h-278v-676h278v68h-203v231z"/><path id="17" class="fil4" d="M9357 3772c53 0 91 12 113 37 23 25 34 62 34 112v32c0 36-6 66-17 88-12 22-32 38-62 47 33 9 56 26 70 51s21 56 21 94v57c0 51-13 90-38 117s-64 41-117 41h-155v-676h151zm-18 287c30 0 53-6 68-19 15-12 23-36 23-71v-40c0-30-6-53-17-67-11-15-31-22-58-22h-74v219h58zm22 321c54 0 80-31 80-92v-60c0-38-7-65-22-79-15-15-39-22-72-22h-66v253h80z"/><path id="18" class="fil4" d="M9579 3935c0-52 12-94 38-124 25-31 64-46 116-46 53 0 92 15 117 46 26 30 39 72 39 124v350c0 51-13 93-39 124-25 30-64 46-117 46-52 0-91-16-116-46-26-31-38-73-38-124v-350zm74 354c0 31 7 55 20 72s33 25 60 25c28 0 48-8 61-25s20-41 20-72v-358c0-31-7-55-20-72s-33-26-61-26c-27 0-47 9-60 26s-20 41-20 72v358z"/><path id="19" class="fil4" d="M10106 3765c53 0 91 15 116 46s37 72 37 124v58h-71v-62c0-31-7-55-19-72-13-17-33-26-61-26-27 0-47 9-60 26-12 17-19 41-19 72v358c0 31 7 55 19 72 13 17 33 25 60 25 28 0 48-8 61-25 12-17 19-41 19-72v-136h-70v-67h141v199c0 51-12 93-37 124-25 30-63 46-116 46-51 0-89-16-114-46-25-31-37-73-37-124v-350c0-26 3-49 9-70s15-39 28-54 28-26 47-34 42-12 67-12z"/><path id="20" class="fil4" d="M10477 3765c52 0 90 15 115 46s37 72 37 124v58h-71v-62c0-31-6-55-19-72-12-17-33-26-60-26s-47 9-60 26-20 41-20 72v358c0 31 7 55 20 72s33 25 60 25 48-8 60-25c13-17 19-41 19-72v-136h-70v-67h141v199c0 51-12 93-37 124-25 30-63 46-115 46s-90-16-115-46c-25-31-37-73-37-124v-350c0-26 3-49 9-70s16-39 28-54c13-15 29-26 48-34s41-12 67-12z"/><path id="21" class="fil4" d="M10776 3772v676h-75v-676z"/><path id="22" class="fil4" d="M10920 4448h-67v-676h95l157 489v-489h67v676h-79l-173-547z"/><path id="23" class="fil4" d="M11243 3935c0-52 13-94 38-124 26-31 65-46 117-46s91 15 117 46c26 30 39 72 39 124v350c0 51-13 93-39 124-26 30-65 46-117 46s-91-16-117-46c-25-31-38-73-38-124v-350zm75 354c0 31 6 55 20 72 13 17 33 25 60 25 28 0 48-8 61-25s19-41 19-72v-358c0-31-6-55-19-72s-33-26-61-26c-27 0-47 9-60 26-14 17-20 41-20 72v358z"/></g></svg>